<?xml version="1.0" encoding="UTF-8"?>
<svg id="a" data-name="Layer 1" xmlns="http://www.w3.org/2000/svg" viewBox="0 0 150 90">
  <defs>
    <style>
      .b {
        fill: #56637e;
      }
    </style>
  </defs>
  <path class="b" d="m141.08,63.18c-.18-.35-.37-.68-.58-1.01-2.15-3.41-5.36-5.63-8.7-7.7-3.66-2.27-7.66-3.88-11.47-5.86-2.29-1.19-4.62-2.32-6.35-4.32-1.9-2.17-1.36-4.07,1.35-5.03,2.07-.73,4.21-.56,6.33-.62,2.94-.07,5.88-.1,8.72-.97,3.15-.95,5.66-2.64,6.9-5.87.78-2.02.98-4.09.8-6.2-.24-2.85-1.29-5.9-3.17-8.1-2.82-3.3-6.34-5.29-10.35-6.76-4.26-1.55-8.72-2.09-13.28-2.08-7.25.01-42.82.04-47.25.01-1.42,0-1.51.01-1.85,1.43-.35,1.45-4.23,15.51-8.19,29.73-.22-.5-.43-1-.63-1.5-1.62-4.01-3.27-8.43-4.25-12.64-1.27-5.39-1.74-10.77-.43-16.2,0-.01,0,0-.02.02.26-.75,0-.84-.59-.85,0,0-19.64.02-20.34.03-.37,0-.88-.05-.87.46.02.43.41.38.78.42.62.06,1.14.09,1.85.2,2.97.46,2.81,2.02,2.67,3.77-.02.27-.1.68-.21,1.14-3.76,13.76-14.71,53.08-15.65,56.01-.88,2.77-2.72,4.51-5.34,5.3-.2.06-.41.11-.64.15-.7.1-1.41.14-2.12.24-.39.06-.72,0-.71.44.01.39.33.36.69.36,1.44,0,6.22,0,6.22,0,5.75,0,43.94.01,49.82,0,.37,0,.68.03.69-.36.01-.43-.32-.38-.71-.44-.7-.1-1.41-.13-2.12-.24-2.1-.32-3.25-1.78-3.1-3.87.06-.81,1.41-5.84,3.35-12.76.43.71.87,1.42,1.31,2.12,2.83,4.42,6.19,8.35,10.34,11.66,2.06,1.64,4.25,2.88,6.65,3.54,4.37,1.27,9.65,1.02,13.47-1.53,3.36-2.24,5.53-5.86,6.93-9.57,1.13-3.02,1.81-6.21,2.12-9.41.4-4.08.06-8.22.06-12.31,0-4.2,0-8.4.01-12.61,0-3.07.01-6.14.02-9.2.01-2.91.57-5.73,2.09-8.26.85-1.42,2-2.55,3.46-3.37,2.49-1.41,7.55-1.33,10.42,1.96,1.68,1.93,2.69,4.16,3.12,6.58.82,4.68.91,9.38-.63,13.97-.19.56-.42,1.11-.7,1.63-.91,1.69-2.31,2.64-4.25,2.78-2.27.16-4.56.14-6.77.84-.97.31-1.91.63-2.69,1.31-1.01.89-1.17,1.98-.4,3.09.79,1.13,1.95,1.81,3.16,2.38,3.11,1.46,6.29,2.78,9.2,4.62,4.37,2.77,7.04,6.66,7.81,11.83.57,3.86-.12,8.3-2.46,11.51-2.6,3.57-6.99,3.52-10.89,2.46-2.49-.68-4.94-1.15-7.51-.74-2.21.36-3.38,1.33-3.93,2-.18.21.02.51.28.45.58-.14,1.2-.2,1.77-.21,3.42-.02,6.12.72,9.45,1.83,4.75,1.58,9.75,2.79,14.79,2.37,2.04-.17,4.07-.59,5.97-1.36,2.13-.86,4.24-2.17,5.71-3.95,2.85-3.48,2.8-8.88.81-12.76Zm-95.77,7.53c-.91,2.87-2.86,4.64-5.64,5.39-1.17.31-2.36.46-3.55.43-1.33-.01-2.77-.22-4.02-.65-1.44-.58-2.21-1.87-2.09-3.6.16-2.22,10.11-36.46,15.17-53.76.41,1.69.84,4.17.93,4.51.53,2.16,1.11,4.31,1.75,6.44,1.29,4.26,2.82,8.45,4.7,12.48.16.33.34.71.55,1.12-3.72,13.35-7.28,26.02-7.79,27.63Zm39.67-6.27c-.64,4.64-5.16,6.79-9.44,4.98-2.26-.96-4.17-2.44-5.79-4.26-2.42-2.7-4.7-5.43-6.56-8.52,3.4-12.03,8.11-28.22,11.08-38.37,1.55,5.79,4.26,13.71,5.66,18.36,1.88,6.22,3.87,12.42,4.92,18.89.48,2.96.55,5.95.14,8.92Zm2.51-17.72c-2.71-5.29-5.36-10.61-7.28-16.29-1.42-4.21-2.41-8.37-2.6-12.63-.05-1.76.4-3.45.74-4.24,0-.02.01-.03.02-.05,1.86-4.2,7.91-4.2,9.77,0,0,.02.01.03.02.05.28.64.63,1.88.72,3.26.09,2,.12,4,.14,6,.04,5.72.01,11.44.01,19.1-.05,2.38,0,5.08.03,7.95-.51-1.06-1.04-2.11-1.58-3.16Z"/>
</svg>