<?xml version="1.0" encoding="UTF-8"?>
<svg id="Layer_1" data-name="Layer 1" xmlns="http://www.w3.org/2000/svg" viewBox="0 0 100 1200">
  <defs>
    <style>
      .cls-1 {
        fill: #b3b3b3;
      }
    </style>
  </defs>
  <path class="cls-1" d="m11.31,292.09c0-14.19,11.54-25.73,25.73-25.73v-18.99c-15.39,0-28.99,7.82-37.04,19.69v25.04h11.31Z"/>
  <path class="cls-1" d="m100,1180.96c-13.14-1.14-23.49-12.19-23.49-25.63h-18.99c0,23.91,18.86,43.5,42.49,44.67v-19.04Z"/>
  <polygon class="cls-1" points="0 42.92 31.99 42.92 14.09 0 0 33.79 0 42.92"/>
  <path class="cls-1" d="m21.11,529.94c12.77,0,23.12,10.35,23.12,23.12h11.44v-34.56H0v25.13c3.61-8.06,11.7-13.68,21.11-13.68Z"/>
  <path class="cls-1" d="m91.88,697.24c2.83,0,5.55-.42,8.12-1.21v-53.34c-2.57-.78-5.3-1.21-8.12-1.21-15.4,0-27.88,12.48-27.88,27.88s12.48,27.88,27.88,27.88Z"/>
  <polygon class="cls-1" points="60.13 405.29 84.92 430.08 100 415.01 100 395.58 84.92 380.5 60.13 405.29"/>
  <path class="cls-1" d="m86.95,131.34c-15.25,0-27.61,12.36-27.61,27.61h40.65v-24.33c-3.89-2.09-8.33-3.27-13.05-3.27Z"/>
  <path class="cls-1" d="m17.5,1066.92c15.12,0,27.38-12.26,27.38-27.38H0v21.05c4.75,3.95,10.85,6.33,17.5,6.33Z"/>
  <polygon class="cls-1" points="27.92 835.91 27.92 819.59 44.24 819.59 44.24 801.97 27.92 801.97 27.92 785.65 10.3 785.65 10.3 801.97 0 801.97 0 819.59 10.3 819.59 10.3 835.91 27.92 835.91"/>
  <polygon class="cls-1" points="74.98 924.33 53.9 951.12 100 951.12 100 924.33 74.98 924.33"/>
</svg>